<svg width="102" height="25" viewBox="0 0 102 25" fill="none" xmlns="http://www.w3.org/2000/svg">
<g clip-path="url(#clip0_84_158)">
<path d="M89.5 24.6667C96.2195 24.6667 101.667 19.2195 101.667 12.5C101.667 5.78053 96.2195 0.333328 89.5 0.333328C82.7806 0.333328 77.3334 5.78053 77.3334 12.5C77.3334 19.2195 82.7806 24.6667 89.5 24.6667Z" fill="#006039"/>
<path d="M89.5 0.666667C96.0167 0.666667 101.333 5.98333 101.333 12.5C101.333 19.0167 96.0167 24.3333 89.5 24.3333C82.9833 24.3333 77.6667 19.0167 77.6667 12.5C77.6667 5.98333 82.9833 0.666667 89.5 0.666667ZM89.5 0C82.6 0 77 5.6 77 12.5C77 19.4 82.6 25 89.5 25C96.4 25 102 19.4 102 12.5C102 5.6 96.4 0 89.5 0Z" fill="white"/>
<path d="M83.15 21.4667L82.95 21.7333L82.3667 21.2833L82.5667 21.0167L83.15 21.4667ZM84.3 20.25L83.0667 21.8167L82.8 21.6L84.0334 20.0333L84.3 20.25ZM83.6667 20.8L83.4667 21.0667L82.9334 20.65L83.1334 20.3833L83.6667 20.8ZM84.1834 20.15L83.9834 20.4167L83.4 19.9667L83.6 19.7L84.1834 20.15Z" fill="white"/>
<path d="M82.7334 18.7833C82.8 18.8667 82.85 18.95 82.8667 19.0333C82.8834 19.1167 82.8834 19.2 82.85 19.2667C82.8167 19.35 82.7667 19.4167 82.6834 19.4833L82.6 19.55L82.3667 19.3L82.45 19.2333C82.4834 19.2 82.5167 19.1667 82.5167 19.1167C82.5167 19.0833 82.5 19.0333 82.4667 19C82.4334 18.9667 82.4 18.95 82.3667 18.9333C82.3334 18.9333 82.2834 18.95 82.25 18.9833L82.1167 19.1C82.0834 19.1333 82.0667 19.1667 82.0667 19.2C82.0667 19.2333 82.0667 19.2833 82.0667 19.3167C82.0834 19.3667 82.0834 19.4167 82.1 19.4667C82.1167 19.5167 82.1167 19.5667 82.1334 19.6167C82.15 19.6667 82.15 19.7167 82.1334 19.7833C82.1334 19.8333 82.1167 19.9 82.0834 19.95C82.05 20 82.0167 20.0667 81.95 20.1167L81.8667 20.1833C81.75 20.2833 81.6334 20.3333 81.5167 20.3167C81.4 20.3 81.2834 20.25 81.1834 20.1167C81.0834 20 81.0334 19.8833 81.05 19.7667C81.0667 19.65 81.1167 19.5333 81.2334 19.4333L81.3167 19.3667L81.55 19.6167L81.4667 19.7C81.4334 19.7333 81.4 19.7667 81.4 19.8167C81.4 19.85 81.4167 19.9 81.4334 19.9333C81.4667 19.9667 81.5 19.9833 81.5334 20C81.5667 20 81.6 19.9833 81.6334 19.9667L81.7334 19.8833C81.7667 19.85 81.7834 19.8167 81.8 19.7833C81.8 19.75 81.8 19.7 81.7834 19.65C81.7667 19.6 81.7667 19.55 81.75 19.5C81.7334 19.45 81.7334 19.4 81.7167 19.35C81.7 19.3 81.7 19.25 81.7167 19.2C81.7167 19.15 81.7334 19.1 81.7667 19.05C81.8 19 81.8334 18.95 81.9 18.9L82.0334 18.7833C82.15 18.6833 82.2667 18.6333 82.4 18.65C82.5167 18.6 82.6334 18.6667 82.7334 18.7833Z" fill="white"/>
<path d="M80.7834 17.6167L79.6667 17.85L79.5167 17.5667L81.2667 16.6L81.4167 16.8667L80.2001 17.55L80.2667 17.4833L81.2501 17.2833L81.3334 17.4333L80.6667 18.1333L80.5501 18.1667L81.7667 17.4833L81.9167 17.75L80.1667 18.7167L80.0167 18.4333L80.7834 17.6167Z" fill="white"/>
<path d="M81 15.9167L78.95 16.0333L78.8833 15.8L80.6666 14.7667L80.7666 15.0833L79.5833 15.7L80.9166 15.5667L81 15.9167ZM80.6 15.7L80.3 15.8L80.15 15.2833L80.45 15.1833L80.6 15.7Z" fill="white"/>
<path d="M78.85 14.05L78.5167 14.0833L78.4333 13.35L78.7667 13.3167L78.85 14.05ZM80.5167 14.0167L78.5167 14.2167L78.4833 13.8833L80.4833 13.6833L80.5167 14.0167ZM79.6833 13.9667L79.35 14L79.2833 13.3333L79.6167 13.3L79.6833 13.9667ZM80.5 13.8667L80.1667 13.9L80.1 13.1667L80.4333 13.1333L80.5 13.8667Z" fill="white"/>
<path d="M78.45 11.9167L80.45 12.0167L80.4333 12.35L78.4333 12.25L78.45 11.9167Z" fill="white"/>
<path d="M80.5334 11.1667L78.5834 10.7667L78.65 10.4333L80.6167 10.8333L80.5334 11.1667ZM80.5667 11.0333L80.25 10.9667L80.4 10.2667L80.7167 10.3333L80.5667 11.0333Z" fill="white"/>
<path d="M80.95 9.59999L80.6333 9.48332L80.75 9.16666L81.0666 9.28332L80.95 9.59999Z" fill="white"/>
<path d="M81.6 8.19999C81.55 8.29999 81.4833 8.36666 81.4166 8.41666C81.35 8.46666 81.2666 8.48332 81.1833 8.48332C81.1 8.48332 81.0166 8.44999 80.9166 8.39999L80.8333 8.34999L81 8.04999L81.1 8.09999C81.15 8.11666 81.1833 8.13332 81.2166 8.11666C81.25 8.09999 81.2833 8.08332 81.3166 8.03332C81.3333 7.98332 81.35 7.94999 81.3333 7.91666C81.3166 7.88332 81.3 7.84999 81.25 7.81666L81.1 7.73332C81.0666 7.71666 81.0333 7.69999 80.9833 7.71666C80.95 7.71666 80.9166 7.73332 80.8666 7.76666C80.8333 7.78332 80.7833 7.81666 80.75 7.84999C80.7 7.88332 80.6666 7.89999 80.6166 7.93332C80.5666 7.96666 80.5166 7.98332 80.4666 7.99999C80.4166 8.01666 80.35 8.01666 80.3 8.01666C80.2333 8.01666 80.1666 7.98332 80.1 7.94999L80 7.88332C79.8666 7.81666 79.7833 7.71666 79.75 7.59999C79.7166 7.48332 79.7333 7.34999 79.8166 7.21666C79.8833 7.08332 79.9833 6.99999 80.1 6.96666C80.2166 6.93332 80.35 6.94999 80.4833 7.03332L80.5833 7.08332L80.4166 7.38332L80.3166 7.33332C80.2666 7.31666 80.2333 7.29999 80.2 7.31666C80.1666 7.33332 80.1333 7.34999 80.1166 7.39999C80.1 7.44999 80.0833 7.48332 80.1 7.51666C80.1166 7.54999 80.1333 7.58332 80.1833 7.59999L80.3 7.66666C80.3333 7.68332 80.3833 7.69999 80.4166 7.68332C80.45 7.66666 80.5 7.64999 80.5333 7.63332C80.5666 7.59999 80.6166 7.58332 80.6666 7.54999C80.7 7.51666 80.75 7.49999 80.7833 7.46666C80.8333 7.43332 80.8666 7.41666 80.9166 7.41666C80.9666 7.39999 81.0166 7.39999 81.0833 7.39999C81.1333 7.39999 81.2 7.43332 81.2833 7.46666L81.4333 7.54999C81.5666 7.63332 81.65 7.71666 81.6833 7.83332C81.7 7.93332 81.6666 8.06666 81.6 8.19999Z" fill="white"/>
<path d="M82.2334 7.11666L81.0167 5.46666L81.1667 5.28333L83.0001 6.19999L82.7834 6.46666L81.6167 5.81666L82.4501 6.86666L82.2334 7.11666ZM82.2167 6.66666L81.9667 6.46666L82.3167 6.04999L82.5667 6.24999L82.2167 6.66666Z" fill="white"/>
<path d="M83.5667 5.68333L82.3167 4.11666L82.5833 3.89999L83.8333 5.46666L83.5667 5.68333ZM83.75 5.53333L83.55 5.28333L83.75 5.11666C83.7833 5.08333 83.8 5.04999 83.8 5.01666C83.8 4.98333 83.7833 4.93333 83.75 4.89999L83.1167 4.09999C83.0833 4.06666 83.05 4.03333 83.0167 4.03333C82.9833 4.03333 82.95 4.03333 82.9 4.06666L82.7 4.23333L82.5 3.96666L82.7333 3.78333C82.85 3.69999 82.95 3.64999 83.0667 3.66666C83.1833 3.68333 83.2833 3.73333 83.3667 3.84999L84.05 4.71666C84.1167 4.78333 84.15 4.86666 84.1667 4.93333C84.1833 4.99999 84.1667 5.08333 84.1333 5.14999C84.1 5.21666 84.05 5.28333 83.9667 5.34999L83.75 5.53333Z" fill="white"/>
<path d="M85.0166 4.61666L84.1 2.83333L84.4 2.68333L85.3166 4.46666L85.0166 4.61666ZM84.7666 3.79999L84.6166 3.49999L84.9333 3.33333C84.9666 3.31666 85 3.28333 85.0166 3.24999C85.0333 3.21666 85.0166 3.18333 85 3.14999L84.9 2.94999C84.8833 2.91666 84.85 2.88333 84.8166 2.86666C84.7833 2.84999 84.75 2.86666 84.7 2.88333L84.3833 3.04999L84.2333 2.76666L84.5333 2.61666C84.6333 2.56666 84.7166 2.53333 84.8 2.53333C84.8833 2.53333 84.9666 2.54999 85.0333 2.58333C85.1 2.63333 85.15 2.68333 85.2 2.76666L85.3 2.96666C85.35 3.04999 85.3666 3.13333 85.3666 3.21666C85.3666 3.29999 85.3333 3.36666 85.2833 3.43333C85.2333 3.49999 85.15 3.56666 85.0666 3.61666L84.7666 3.79999ZM85.6333 4.29999L84.9833 3.61666L85.2333 3.41666L85.9666 4.13333L85.6333 4.29999Z" fill="white"/>
<path d="M86.4333 1.83333L87.05 3.73333L86.7166 3.83333L86.1 1.93333L86.4333 1.83333Z" fill="white"/>
<path d="M99.2667 1.68333C99.4834 1.36666 99.6834 1.05 99.9167 0.749996C99.9334 0.716663 99.9834 0.73333 99.9834 0.766663C100.467 2.08333 100.75 3.5 100.667 4.9C100.65 5.78333 100.417 6.65 100.15 7.48333C99.2334 9.98333 97.1334 11.8833 94.7667 13C93.4834 13.6833 92.2 14.4333 91.1 15.4167C90.7 15.7667 90.3334 16.1833 90.0667 16.6333C89.3 17.9333 88.55 19.2667 87.75 20.5667C87.5 20.9667 87.3 21.3833 87.0167 21.75C87 21.7667 86.9834 21.7667 86.9667 21.7667C86.6834 21.6333 86.4 21.5333 86.0834 21.4667C86.0667 21.4667 86.05 21.4667 86.0334 21.4833C85.6 22.3333 85.15 23.1667 84.65 23.9833C84.6334 24 84.6167 24 84.6 24C84.2834 23.8667 83.9834 23.7167 83.6834 23.55C83.6667 23.5333 83.65 23.5167 83.6667 23.5C84.2834 22.2167 84.9834 20.9667 85.6167 19.6833C86.25 18.5167 86.8334 17.3167 87.45 16.15C87.6167 15.8 87.8834 15.45 87.8667 15.0333C87.8667 13.7667 87.8667 12.4833 87.8834 11.2167C87.8834 10.7333 87.9667 10.2333 87.7834 9.78333C87.3834 8.78333 87.2334 7.7 87.25 6.61666C87.3 5.41666 87.55 4.2 88.15 3.16666C88.1667 3.13333 88.2 3.13333 88.2167 3.16666C88.4667 3.61666 88.7667 4.05 88.9667 4.53333V4.55C89 5 88.8 5.41666 88.7667 5.86666C88.6 7.18333 88.6 8.61666 89.2167 9.83333C89.7334 10.9 90.7834 11.6667 91.9167 11.9667C92.45 12.1167 93.0334 12.25 93.5667 12.0667C94.9 11.65 96.1167 10.9167 97.1167 9.93333C97.6334 9.35 98.1167 8.71666 98.4667 8C99.1834 6.61666 99.4334 5.03333 99.3667 3.5C99.3667 3.05 99.2167 2.63333 99.0834 2.2C99.0334 2 99.1667 1.83333 99.2667 1.68333ZM89.2667 12.5667C89.25 13.4333 89.1167 14.2833 89.1834 15.15C89.1834 15.1833 89.2334 15.2 89.25 15.1833C89.55 14.9167 89.8334 14.6333 90.15 14.3833C90.5167 14.0667 90.9334 13.7833 91.2667 13.4333C91.2834 13.4167 91.2834 13.3833 91.25 13.3667C90.6334 13.0333 89.9834 12.75 89.3167 12.5333C89.3 12.5167 89.2667 12.55 89.2667 12.5667Z" fill="#FDCE07" stroke="white" stroke-width="0.2" stroke-miterlimit="10"/>
<path d="M91.9167 7.65C92.4 7.48334 92.9667 7.6 93.3333 7.95C93.65 8.23334 93.8 8.66667 93.7833 9.1C93.75 9.81667 93.0833 10.4667 92.35 10.4167C91.6333 10.45 91 9.81667 90.9833 9.1C90.9167 8.48334 91.3333 7.86667 91.9167 7.65Z" fill="#FDCE07" stroke="white" stroke-width="0.2" stroke-miterlimit="10"/>
<path d="M93.85 8.81666C93.2 8.98333 92.55 8.76666 92.2833 8.33333C92.0833 8 92.15 7.63333 92.1833 7.51666" stroke="white" stroke-width="0.1" stroke-miterlimit="10"/>
<path d="M90.9834 9.11667C91.6334 8.95 92.2834 9.16666 92.5501 9.6C92.7501 9.93333 92.6834 10.3 92.6501 10.4167" stroke="white" stroke-width="0.1" stroke-miterlimit="10"/>
<path d="M99.5 12.45H100.7V12.6667H99.5V12.45ZM100.6 12.25H100.817V12.9H100.6V12.25Z" fill="white"/>
<path d="M99.4334 13.5667L99.65 13.6L99.5834 14.0833L99.3667 14.05L99.4334 13.5667ZM99.45 13.4667L100.75 13.6333L100.717 13.85L99.4167 13.6833L99.45 13.4667ZM99.9834 13.6333L100.2 13.6667L100.15 14.1L99.9334 14.0667L99.9834 13.6333ZM100.517 13.7L100.733 13.7333L100.667 14.2167L100.45 14.1833L100.517 13.7Z" fill="white"/>
<path d="M99.2834 14.6L100.55 14.9167L100.5 15.0833L99.5668 15.1667L99.5334 15.1333L100.417 15.35L100.367 15.55L99.1001 15.2333L99.1501 15.0667L100.033 14.9667L100.067 15L99.2334 14.7833L99.2834 14.6Z" fill="white"/>
<path d="M98.9334 15.8333L100.15 16.3167L100.083 16.4833L99.1501 16.45L99.1334 16.4167L99.9834 16.75L99.9167 16.9333L98.7001 16.45L98.7667 16.2833L99.6501 16.3L99.6834 16.3333L98.8834 16.0167L98.9334 15.8333Z" fill="white"/>
<path d="M99.4833 17.8167L98.3167 17.2167L98.4167 17.0167L99.5833 17.6167L99.4833 17.8167Z" fill="white"/>
<path d="M97.8333 17.9833C97.8667 17.9333 97.9167 17.8833 97.9667 17.85C98.0167 17.8167 98.0667 17.8167 98.1167 17.8167C98.1667 17.8167 98.2333 17.85 98.2833 17.8833L98.35 17.9167L98.2333 18.1L98.1667 18.0667C98.1333 18.05 98.1167 18.05 98.0833 18.05C98.05 18.05 98.0333 18.0667 98.0167 18.1C98 18.1333 98 18.15 98 18.1833C98 18.2167 98.0167 18.2333 98.05 18.25L98.15 18.3167C98.1667 18.3333 98.2 18.3333 98.2167 18.3333C98.2333 18.3333 98.2667 18.3167 98.3 18.3C98.3333 18.2833 98.35 18.2667 98.3833 18.25C98.4167 18.2333 98.45 18.2167 98.4833 18.2C98.5167 18.1833 98.55 18.1667 98.5833 18.1667C98.6167 18.1667 98.65 18.1667 98.7 18.1667C98.7333 18.1667 98.7833 18.2 98.8333 18.2167L98.8833 18.25C98.9667 18.3 99.0167 18.3667 99.0333 18.45C99.05 18.5333 99.0333 18.6167 98.9667 18.7C98.9167 18.7833 98.85 18.8333 98.7667 18.85C98.6833 18.8667 98.6 18.85 98.5167 18.7833L98.45 18.75L98.5667 18.5667L98.6333 18.6C98.6667 18.6167 98.6833 18.6333 98.7167 18.6167C98.75 18.6167 98.7667 18.6 98.7833 18.5667C98.8 18.5333 98.8 18.5167 98.8 18.4833C98.8 18.4667 98.7833 18.4333 98.75 18.4167L98.6833 18.3667C98.65 18.35 98.6333 18.35 98.6 18.35C98.5667 18.35 98.55 18.3667 98.5167 18.3833C98.4833 18.4 98.45 18.4167 98.4333 18.4333C98.4 18.45 98.3833 18.4667 98.35 18.4833C98.3167 18.5 98.2833 18.5 98.25 18.5167C98.2167 18.5167 98.1833 18.5167 98.15 18.5167C98.1167 18.5167 98.0667 18.4833 98.0333 18.4667L97.95 18.4C97.8667 18.35 97.8167 18.2833 97.8 18.2C97.75 18.15 97.7833 18.0667 97.8333 17.9833Z" fill="white"/>
<path d="M97.3334 18.7L97.5167 18.8333L97.3834 19.0167L97.2001 18.8833L97.3334 18.7Z" fill="white"/>
<path d="M96.8666 19.2667L97.5833 20.4167L97.4667 20.5333L96.3167 19.8333L96.4667 19.6833L97.2 20.1667L96.7167 19.4333L96.8666 19.2667ZM96.85 19.5667L97 19.7167L96.75 19.9667L96.6 19.8167L96.85 19.5667Z" fill="white"/>
<path d="M95.6833 20.3333C95.7333 20.3 95.7833 20.2667 95.8333 20.2667C95.8833 20.25 95.9333 20.2667 95.9833 20.2833C96.0333 20.3 96.0833 20.35 96.1167 20.4L96.5333 20.9333C96.5833 20.9833 96.6 21.05 96.6167 21.1C96.6333 21.15 96.6167 21.2 96.6 21.25C96.5833 21.3 96.55 21.35 96.4833 21.3833C96.4333 21.4167 96.3833 21.45 96.3333 21.4667C96.2833 21.4833 96.2333 21.4667 96.1833 21.45C96.1333 21.4333 96.0833 21.3833 96.0333 21.3333L95.9667 21.25L96.15 21.1167L96.2167 21.2C96.2333 21.2167 96.25 21.2333 96.2667 21.2333C96.2833 21.25 96.3 21.25 96.3167 21.25C96.3333 21.25 96.35 21.25 96.3667 21.2333C96.3833 21.2167 96.4 21.2 96.4 21.1667C96.4 21.15 96.3833 21.1167 96.3667 21.0833L95.95 20.55C95.9333 20.5167 95.9 20.5 95.8833 20.5C95.8667 20.5 95.8333 20.5 95.8167 20.5167C95.8 20.5333 95.7833 20.55 95.7833 20.5833C95.7833 20.6 95.8 20.6333 95.8167 20.6667L95.8833 20.75L95.7 20.8833L95.6333 20.8C95.5833 20.75 95.5667 20.6833 95.55 20.6333C95.5333 20.5833 95.55 20.5333 95.5667 20.4833C95.6 20.4167 95.6333 20.3667 95.6833 20.3333Z" fill="white"/>
<path d="M95.0501 20.8167L95.4668 22.1L95.3334 22.1833L94.3834 21.2333L94.5668 21.1167L95.1668 21.7667L94.8668 20.95L95.0501 20.8167ZM94.9834 21.1L95.1001 21.2833L94.8001 21.4667L94.6834 21.2833L94.9834 21.1Z" fill="white"/>
<path d="M93.7501 21.55L93.8334 21.75L93.6834 21.8167C93.6501 21.8333 93.6334 21.85 93.6334 21.8667C93.6334 21.8833 93.6334 21.9167 93.6501 21.95L93.9334 22.5667C93.9501 22.6 93.9668 22.6167 93.9834 22.6333C94.0001 22.65 94.0334 22.65 94.0501 22.6333L94.2001 22.5667L94.2834 22.7667L94.1168 22.85C94.0334 22.8833 93.9501 22.9 93.8834 22.8667C93.8168 22.8333 93.7668 22.7833 93.7168 22.7L93.4168 22.0333C93.3834 21.9833 93.3834 21.9167 93.3834 21.8667C93.3834 21.8167 93.4001 21.7667 93.4334 21.7333C93.4668 21.7 93.5168 21.6667 93.5668 21.6333L93.7501 21.55ZM93.8834 21.4833L94.4168 22.6833L94.2168 22.7833L93.6834 21.5833L93.8834 21.4833Z" fill="white"/>
<path d="M92.65 21.9833L92.7167 22.2L92.25 22.35L92.1833 22.1333L92.65 21.9833ZM92.8 22.5L92.8667 22.7L92.45 22.8333L92.3834 22.6333L92.8 22.5ZM92.9667 23.0333L93.0333 23.25L92.5667 23.4L92.5 23.1833L92.9667 23.0333ZM92.7334 21.95L93.1167 23.2L92.9 23.2667L92.5167 22.0167L92.7334 21.95Z" fill="white"/>
<path d="M91.3 22.9333L91.2 23.6667L91 23.7L90.7833 22.4L90.9833 22.3667L91.1333 23.2667L91.1167 23.2167L91.2 22.5667L91.3167 22.55L91.6 23.1167V23.2L91.45 22.3L91.65 22.2667L91.8667 23.5667L91.65 23.6L91.3 22.9333Z" fill="white"/>
<path d="M89.5834 23.8167L89.7834 23L89.7667 22.5L89.9834 22.4833L90 22.9833L90.2834 23.7833L90.05 23.8L89.9 23.2667L89.8 23.8167H89.5834Z" fill="white"/>
</g>
<path d="M11.6943 16.1416H9.8999V13.4072C9.8999 13.0898 9.79004 12.8132 9.57031 12.5771C9.35059 12.333 9.08203 12.2109 8.76465 12.2109C8.44727 12.2109 8.17057 12.3289 7.93457 12.5649C7.69857 12.7928 7.58057 13.0654 7.58057 13.3828L7.56836 16.7886C7.56836 17.2118 7.78809 17.4233 8.22754 17.4233H8.8623C9.75749 17.4233 10.3719 17.5169 10.7056 17.7041C11.3403 18.0622 11.6577 18.5871 11.6577 19.2788C11.6577 20.1659 11.1776 21.0529 10.2173 21.9399C9.13493 22.9328 7.88981 23.4292 6.48193 23.4292C4.98454 23.4292 3.72314 22.9206 2.69775 21.9033C1.67236 20.8861 1.15967 19.6287 1.15967 18.1313V10.2334H3.00293V18.1313C3.00293 19.1079 3.33659 19.938 4.00391 20.6216C4.67936 21.297 5.50537 21.6348 6.48193 21.6348C7.5236 21.6348 8.38623 21.2767 9.06982 20.5605C9.54997 20.056 9.79004 19.6735 9.79004 19.4131C9.79004 19.2666 9.65983 19.1893 9.39941 19.1812C9.80632 19.1974 9.62728 19.2056 8.8623 19.2056H8.31299C7.54801 19.2056 6.97021 19.055 6.57959 18.7539C6.04248 18.3389 5.77393 17.521 5.77393 16.3003V13.2363C5.77393 12.4062 6.05876 11.7023 6.62842 11.1245C7.20622 10.5386 7.91016 10.2456 8.74023 10.2456C9.56217 10.2456 10.258 10.5386 10.8276 11.1245C11.4054 11.7104 11.6943 12.4144 11.6943 13.2363V16.1416ZM15.4297 21.2563C15.4297 22.7049 14.9089 23.9175 13.8672 24.894L12.4878 23.6855C13.2202 22.9938 13.5864 22.0579 13.5864 20.8779V10.2334H15.4297V21.2563ZM22.5098 21H22.3877C21.8262 21 21.3298 20.8169 20.8984 20.4507C20.4508 20.8169 19.9666 21 19.4458 21H16.5649V19.2056H19.3237C19.7469 19.2056 19.9585 18.9899 19.9585 18.5586V15.6289C19.9585 14.6442 19.637 13.8019 18.9941 13.1021C18.3512 12.394 17.5415 12.04 16.5649 12.04V10.2456C18.0461 10.2456 19.2952 10.7746 20.3125 11.8325C21.3053 12.8742 21.8018 14.1396 21.8018 15.6289V18.5952C21.8018 19.0021 21.9971 19.2056 22.3877 19.2056H22.5098V21ZM33.5938 18.5952C33.5938 19.2951 33.3537 19.8729 32.8735 20.3286C32.4015 20.7762 31.8156 21 31.1157 21H24.7437C24.3937 21 24.0885 20.8901 23.8281 20.6704C23.6165 20.8901 23.3805 21 23.1201 21H22.2656V19.2056H22.3999C22.758 19.2056 22.937 18.9655 22.937 18.4854V10.2334H24.7803V14.5547C26.0417 11.6738 27.4658 10.2334 29.0527 10.2334C30.5176 10.2334 31.661 10.7624 32.4829 11.8203C33.2235 12.7806 33.5938 14.0135 33.5938 15.519V18.5952ZM31.7505 18.4365V15.519C31.7505 14.5425 31.5308 13.7409 31.0913 13.1143C30.5868 12.39 29.8665 12.0278 28.9307 12.0278C28.2064 12.0278 27.3763 12.862 26.4404 14.5303C25.8545 15.5801 25.3174 16.756 24.8291 18.0581C24.7721 18.2127 24.7437 18.3755 24.7437 18.5464C24.7437 18.9858 24.9512 19.2056 25.3662 19.2056H31.0303C31.5104 19.2056 31.7505 18.9492 31.7505 18.4365ZM47.3755 21H47.2412C46.1751 22.5951 44.6737 23.3926 42.7368 23.3926C41.2557 23.3926 40.0024 22.8758 38.9771 21.8423C37.9517 20.8169 37.439 19.5636 37.439 18.0825V10.2334H39.2822V18.0825C39.2822 19.0591 39.62 19.8973 40.2954 20.5972C40.979 21.2889 41.8091 21.6348 42.7856 21.6348C43.5669 21.6348 44.2342 21.415 44.7876 20.9756C43.3228 21.0244 42.4967 20.4344 42.3096 19.2056H47.3755V21ZM52.6733 18.6196C52.6733 20.2065 52.0589 21 50.8301 21H49.6704V19.2056C49.6704 19.7264 49.4914 20.1577 49.1333 20.4995C48.7834 20.8332 48.348 21 47.8271 21H47.0947V19.2056H47.3511C47.6685 19.2056 47.8271 19.0306 47.8271 18.6807V12.6504C47.8271 11.9749 48.0591 11.4053 48.5229 10.9414C48.9868 10.4775 49.5565 10.2456 50.2319 10.2456C50.883 10.2456 51.4526 10.4735 51.9409 10.9292C52.4292 11.3849 52.6733 11.9342 52.6733 12.5771V18.6196ZM50.8301 18.6196V12.8335C50.8301 12.3778 50.6348 12.1499 50.2441 12.1499C49.8617 12.1499 49.6704 12.3778 49.6704 12.8335V19.2056C49.8901 19.1974 50.1058 19.1934 50.3174 19.1934C50.6592 19.1283 50.8301 18.937 50.8301 18.6196ZM59.082 18.5952C59.082 19.2544 58.8501 19.82 58.3862 20.292C57.9305 20.764 57.3771 21 56.7261 21H53.8452V19.2056H56.604C57.0272 19.2056 57.2388 18.9899 57.2388 18.5586V15.6289C57.2388 14.6442 56.9173 13.8019 56.2744 13.1021C55.6315 12.394 54.8218 12.04 53.8452 12.04V10.2456C55.3263 10.2456 56.5755 10.7746 57.5928 11.8325C58.5856 12.8742 59.082 14.1396 59.082 15.6289V18.5952ZM62.7808 21H62.6587C61.9995 21 61.4299 20.7681 60.9497 20.3042C60.4777 19.8322 60.2417 19.2707 60.2417 18.6196V7.01074H62.085V18.6196C62.085 19.0103 62.2762 19.2056 62.6587 19.2056H62.7808V21ZM69.7021 9.46436H63.1592V7.66992H69.7021V9.46436ZM69.6899 15.6289C69.6899 17.11 69.1732 18.3755 68.1396 19.4253C67.1143 20.4751 65.861 21 64.3799 21H62.5122V19.2056H64.3799C65.3564 19.2056 66.1865 18.8556 66.8701 18.1558C67.5537 17.4478 67.8955 16.6055 67.8955 15.6289C67.8955 14.6442 67.5537 13.8019 66.8701 13.1021C66.1947 12.4022 65.3646 12.0522 64.3799 12.0522H63.1592V10.2456H64.3799C65.861 10.2456 67.1143 10.7746 68.1396 11.8325C69.1732 12.8823 69.6899 14.1478 69.6899 15.6289ZM73.0591 21H71.228V7.01074H73.0591V21ZM74.1211 5.25293C74.1211 5.57031 74.0031 5.84294 73.7671 6.0708C73.5311 6.29867 73.2544 6.4126 72.937 6.4126C72.6278 6.4126 72.29 6.22949 71.9238 5.86328C71.5658 5.49707 71.3542 5.31396 71.2891 5.31396C70.8984 5.31396 70.7031 5.50521 70.7031 5.8877V6.4126H70.0806V5.8877C70.0806 5.56217 70.1986 5.28548 70.4346 5.05762C70.6787 4.82161 70.9635 4.70361 71.2891 4.70361C71.5251 4.70361 71.8221 4.88672 72.1802 5.25293C72.5382 5.61914 72.7905 5.80225 72.937 5.80225C73.3276 5.80225 73.5229 5.61914 73.5229 5.25293V4.72803H74.1211V5.25293Z" fill="#757575"/>
<defs>
<clipPath id="clip0_84_158">
<rect width="25" height="25" fill="white" transform="translate(77)"/>
</clipPath>
</defs>
</svg>
